<svg id="b801eed4-bf9f-4cd5-bb8e-9300f74bd173" data-name="Layer 1" xmlns="http://www.w3.org/2000/svg" xmlns:xlink="http://www.w3.org/1999/xlink" viewBox="0 0 1080 400"><defs><style>.bdbe1fab-007b-47d3-a935-187e9e60f0a5{fill:url(#fcd8cf2d-6fc2-474f-9986-6c5cc60e1237);}.f0a84b76-f217-4cb8-951d-ed42f5960681{fill:url(#a7158840-b003-41a0-90ad-6f44aeeb591b);}.a6910e45-660c-45d2-91d7-319124f0e23a{fill:url(#b356411e-5feb-4c16-91ea-694d9e315536);}.b85d0941-429b-4ecc-92ee-a19a51370175{fill:url(#ec56802a-697c-46b7-8d64-9bc42cfde29c);}.a12c4080-2033-4f57-8005-3191a4aabd5b{fill:url(#a918e69f-2dfe-45f5-bcad-ff9ee898bbf4);}.a90a32e6-4024-44a2-971b-d835b6b0ba2d{fill:url(#abd1f01d-9f9c-48f4-81bf-b010f80548de);}.a39e2144-f63e-4e23-b641-1dfe79c785fb{fill:url(#f82f4376-b2a3-4221-a055-4dba7844ac56);}.f86c96b6-e6a0-4ca1-8b13-78032b322c33{fill:url(#e2c4ff81-07ae-4955-bdb6-3581fb7658b0);}</style><linearGradient id="fcd8cf2d-6fc2-474f-9986-6c5cc60e1237" x1="967.66" y1="223.89" x2="953.86" y2="92.32" gradientUnits="userSpaceOnUse"><stop offset="0" stop-color="#76ce61"/><stop offset="1" stop-color="#90ff8d"/></linearGradient><linearGradient id="a7158840-b003-41a0-90ad-6f44aeeb591b" x1="953.94" y1="99.67" x2="965.9" y2="234.92" gradientUnits="userSpaceOnUse"><stop offset="0" stop-color="#a1ff8d"/><stop offset="1" stop-color="#0e870e"/></linearGradient><linearGradient id="b356411e-5feb-4c16-91ea-694d9e315536" x1="452.99" y1="338.44" x2="452.99" y2="108.92" gradientUnits="userSpaceOnUse"><stop offset="0" stop-color="#a1ff8d"/><stop offset="1" stop-color="#0e870e"/></linearGradient><linearGradient id="ec56802a-697c-46b7-8d64-9bc42cfde29c" x1="607.28" y1="307.3" x2="492.48" y2="307.3" xlink:href="#b356411e-5feb-4c16-91ea-694d9e315536"/><linearGradient id="a918e69f-2dfe-45f5-bcad-ff9ee898bbf4" x1="651.46" y1="129.9" x2="651.46" y2="315.84" xlink:href="#a7158840-b003-41a0-90ad-6f44aeeb591b"/><linearGradient id="abd1f01d-9f9c-48f4-81bf-b010f80548de" x1="827.56" y1="319.14" x2="827.56" y2="108.08" xlink:href="#a7158840-b003-41a0-90ad-6f44aeeb591b"/><linearGradient id="f82f4376-b2a3-4221-a055-4dba7844ac56" x1="733.89" y1="217.92" x2="660.96" y2="138.06" gradientUnits="userSpaceOnUse"><stop offset="0" stop-color="#a1ff8d"/><stop offset="1" stop-color="#6dd35b"/></linearGradient><linearGradient id="e2c4ff81-07ae-4955-bdb6-3581fb7658b0" x1="830.44" y1="129.67" x2="706.32" y2="273.18" gradientUnits="userSpaceOnUse"><stop offset="0.32" stop-color="#a1ff8d"/><stop offset="1" stop-color="#0e870e"/></linearGradient></defs><image width="1080" height="1080" transform="translate(5.48 7.01) scale(0.36)" xlink:href="dnsc_logo.png"/><path class="bdbe1fab-007b-47d3-a935-187e9e60f0a5" d="M1068.42,250.35a53.14,53.14,0,0,0-4.57-15.06A50.57,50.57,0,0,0,1052.28,219a79.51,79.51,0,0,0-16.6-11.86,123.28,123.28,0,0,0-19.79-8.51q-10.51-3.49-20.86-6.24c-4.37-1.12-8.58-2.11-12.72-3h0c-2.6-.59-5.18-1.16-7.69-1.67q-9.75-2-18-4.11a83.52,83.52,0,0,1-13.85-4.71q-5.64-2.58-7.77-5.93a14,14,0,0,1-1.82-7.3c0-3.85.91-6.93,2.74-9.27a17.45,17.45,0,0,1,7-5.32,30.23,30.23,0,0,1,9.29-2.28c3.35-.3,6.55-.46,9.59-.46a113.63,113.63,0,0,1,35.79,5.48q6.42,2.13,13,4.71a27.06,27.06,0,0,0,33.29-11.68c.81-1.4,1.62-2.79,2.42-4.19a2,2,0,0,0,.14-.25c8.29-14.34,2.09-33.05-13.45-38.77a146.88,146.88,0,0,0-15.47-4.75,192,192,0,0,0-74.91-3.53,120.63,120.63,0,0,0-27.26,7.32A83.63,83.63,0,0,0,891.79,117a69.42,69.42,0,0,0-17.36,23.18,66.21,66.21,0,0,0-5,14.8,72.75,72.75,0,0,0-1.68,15.4q0,22,7.76,35.23a59.62,59.62,0,0,0,20.87,21.2,83.86,83.86,0,0,0,13.85,6.86q7.47,2.9,15.69,5.34,7.9,2.44,16.44,4.27c4.95,1.06,10,2.24,15.13,3.45.84.2,1.64.36,2.49.58,4.34,1.08,8.76,1.83,13.15,2.68,1.63.3,3.23.71,4.83,1.12.7.17,1.4.31,2.08.51,2.08.58,4.14,1.25,6.17,2a43.82,43.82,0,0,1,5.79,2.44,41.51,41.51,0,0,1,5.79,3.51,19.39,19.39,0,0,1,4.56,4.57,10.06,10.06,0,0,1,1.83,5.95q0,7-3.2,10.83a19,19,0,0,1-8.06,5.64,39.54,39.54,0,0,1-10.81,2.29c-4,.3-7.67.46-11.12.46a146.15,146.15,0,0,1-35.18-4.42c-2-.54-4-1.16-6-1.79v0c-4.4-1.33-8.73-2.79-12.72-4.37a28.35,28.35,0,1,0-20.31,52.94q2.58,1,5.08,1.86l-.25.44c3.13,1,6.31,1.78,9.49,2.63,1.67.5,3.26,1,4.67,1.29a200.77,200.77,0,0,0,47,5.6,212.78,212.78,0,0,0,38.37-3.5,108.13,108.13,0,0,0,34.41-12.16,69.5,69.5,0,0,0,24.67-23.56q9.43-14.9,9.44-38A106.9,106.9,0,0,0,1068.42,250.35Z"/><path class="f0a84b76-f217-4cb8-951d-ed42f5960681" d="M942.92,178.89c-3.82-1.58-6.35-3.7-7.76-5.93a13.88,13.88,0,0,1-1.83-7.3c0-3.85.91-6.93,2.74-9.27a17.52,17.52,0,0,1,7-5.32,30.3,30.3,0,0,1,9.29-2.28c3.35-.3,6.55-.46,9.6-.46a113.57,113.57,0,0,1,35.78,5.48q5.6,1.86,11.32,4.05A29.29,29.29,0,0,0,1045,145.33l.36-.63a29.29,29.29,0,0,0-16-42.42q-5.76-1.94-11.65-3.4a192.09,192.09,0,0,0-74.92-3.53,120.77,120.77,0,0,0-27.26,7.32A83.77,83.77,0,0,0,891.91,117a69.55,69.55,0,0,0-17.36,23.18,66.72,66.72,0,0,0-5,14.8,72.75,72.75,0,0,0-1.68,15.4q0,22,7.77,35.23a59.59,59.59,0,0,0,20.86,21.2,111,111,0,0,0,13.86,6.86,155.57,155.57,0,0,0,21.1,6.92A31,31,0,0,0,967.86,223h0a31.07,31.07,0,0,0-18.71-41.75C947,180.49,944.91,179.71,942.92,178.89Z"/><path class="a6910e45-660c-45d2-91d7-319124f0e23a" d="M453,100.22h0A32.73,32.73,0,0,0,420.25,133V303.8A32.74,32.74,0,0,0,453,336.54h32.55c0-27.69.18-58.47.18-58.47V133A32.73,32.73,0,0,0,453,100.22Z"/><path class="b85d0941-429b-4ecc-92ee-a19a51370175" d="M580.74,278.07h-95s-.13,30.78-.18,58.47h95.2A29.23,29.23,0,0,0,610,307.3h0A29.23,29.23,0,0,0,580.74,278.07Z"/><path class="a12c4080-2033-4f57-8005-3191a4aabd5b" d="M678.41,97.44H651.46a30.91,30.91,0,0,0-30.91,30.91v174.5a30.91,30.91,0,0,0,30.91,30.91h0a30.91,30.91,0,0,0,30.91-30.91V98.92A6,6,0,0,0,678.41,97.44Z"/><path class="a90a32e6-4024-44a2-971b-d835b6b0ba2d" d="M800.82,97.44a6,6,0,0,0-4.69,2.55l1,112.26v90.6a30.91,30.91,0,0,0,30.91,30.91h0A30.91,30.91,0,0,0,859,302.85V128.35a30.91,30.91,0,0,0-30.91-30.91Z"/><path class="a39e2144-f63e-4e23-b641-1dfe79c785fb" d="M683.59,100.27A7.79,7.79,0,0,0,682.37,99V212.34l21.21,35,34.89-55.51Z"/><path class="f86c96b6-e6a0-4ca1-8b13-78032b322c33" d="M797.17,212.77,746.63,295.7a4.7,4.7,0,0,1-3,2.44,13.5,13.5,0,0,1-3.66.61,14.37,14.37,0,0,1-4-.61,4.7,4.7,0,0,1-3.05-2.44l-29.33-48.44,34.88-55.51,56.19-89.4,1.48-2.36Z"/></svg>